<mxfile host="Electron" agent="Mozilla/5.0 (Windows NT 10.0; Win64; x64) AppleWebKit/537.36 (KHTML, like Gecko) draw.io/28.1.2 Chrome/138.0.7204.243 Electron/37.4.0 Safari/537.36" version="28.1.2">
  <diagram name="Page-1" id="9f46799a-70d6-7492-0946-bef42562c5a5">
    <mxGraphModel dx="1828" dy="1075" grid="1" gridSize="10" guides="1" tooltips="1" connect="1" arrows="1" fold="1" page="1" pageScale="1" pageWidth="1100" pageHeight="850" background="none" math="0" shadow="0">
      <root>
        <mxCell id="0" />
        <mxCell id="1" parent="0" />
        <mxCell id="jNEB7KIaW5zlR8YYvrXK-5" style="edgeStyle=orthogonalEdgeStyle;rounded=0;orthogonalLoop=1;jettySize=auto;html=1;entryX=0.5;entryY=0;entryDx=0;entryDy=0;" edge="1" parent="1" source="dJ8LJBeau_gsjaq7Ueh_-1" target="jNEB7KIaW5zlR8YYvrXK-11">
          <mxGeometry relative="1" as="geometry">
            <mxPoint x="140" y="150" as="targetPoint" />
          </mxGeometry>
        </mxCell>
        <mxCell id="dJ8LJBeau_gsjaq7Ueh_-1" value="IMPACT.exe" style="rounded=0;whiteSpace=wrap;html=1;" parent="1" vertex="1">
          <mxGeometry x="80" y="50" width="120" height="50" as="geometry" />
        </mxCell>
        <mxCell id="jNEB7KIaW5zlR8YYvrXK-6" value="Local" style="edgeStyle=orthogonalEdgeStyle;rounded=0;orthogonalLoop=1;jettySize=auto;html=1;exitX=1;exitY=0.5;exitDx=0;exitDy=0;entryX=0;entryY=0.5;entryDx=0;entryDy=0;fontStyle=1;fontColor=#00CC00;" edge="1" parent="1" source="jNEB7KIaW5zlR8YYvrXK-9" target="jNEB7KIaW5zlR8YYvrXK-18">
          <mxGeometry relative="1" as="geometry">
            <mxPoint x="280" y="575" as="targetPoint" />
            <mxPoint x="189.9955172413793" y="574.6944827586207" as="sourcePoint" />
          </mxGeometry>
        </mxCell>
        <mxCell id="jNEB7KIaW5zlR8YYvrXK-7" value="Remote" style="edgeStyle=orthogonalEdgeStyle;rounded=0;orthogonalLoop=1;jettySize=auto;html=1;exitX=0.5;exitY=1;exitDx=0;exitDy=0;fontStyle=1;fontColor=#FF0000;" edge="1" parent="1">
          <mxGeometry relative="1" as="geometry">
            <mxPoint x="140" y="660" as="targetPoint" />
            <mxPoint x="140" y="600" as="sourcePoint" />
          </mxGeometry>
        </mxCell>
        <mxCell id="jNEB7KIaW5zlR8YYvrXK-37" style="edgeStyle=orthogonalEdgeStyle;rounded=0;orthogonalLoop=1;jettySize=auto;html=1;entryX=0;entryY=0.5;entryDx=0;entryDy=0;" edge="1" parent="1" source="jNEB7KIaW5zlR8YYvrXK-8" target="jNEB7KIaW5zlR8YYvrXK-27">
          <mxGeometry relative="1" as="geometry" />
        </mxCell>
        <mxCell id="jNEB7KIaW5zlR8YYvrXK-8" value="Read model folder for repo list" style="shape=process;whiteSpace=wrap;html=1;backgroundOutline=1;" vertex="1" parent="1">
          <mxGeometry x="275" y="742.5" width="140" height="50" as="geometry" />
        </mxCell>
        <mxCell id="jNEB7KIaW5zlR8YYvrXK-9" value="Prompt:&lt;div&gt;Buttons&lt;/div&gt;" style="shape=hexagon;perimeter=hexagonPerimeter2;whiteSpace=wrap;html=1;fixedSize=1;" vertex="1" parent="1">
          <mxGeometry x="100" y="550" width="80" height="50" as="geometry" />
        </mxCell>
        <mxCell id="jNEB7KIaW5zlR8YYvrXK-44" style="edgeStyle=orthogonalEdgeStyle;rounded=0;orthogonalLoop=1;jettySize=auto;html=1;entryX=0;entryY=0.5;entryDx=0;entryDy=0;" edge="1" parent="1" source="jNEB7KIaW5zlR8YYvrXK-10" target="jNEB7KIaW5zlR8YYvrXK-43">
          <mxGeometry relative="1" as="geometry" />
        </mxCell>
        <mxCell id="jNEB7KIaW5zlR8YYvrXK-10" value="Docker context logic" style="shape=process;whiteSpace=wrap;html=1;backgroundOutline=1;" vertex="1" parent="1">
          <mxGeometry x="480" y="545" width="120" height="60" as="geometry" />
        </mxCell>
        <mxCell id="jNEB7KIaW5zlR8YYvrXK-12" style="edgeStyle=orthogonalEdgeStyle;rounded=0;orthogonalLoop=1;jettySize=auto;html=1;exitX=0.5;exitY=1;exitDx=0;exitDy=0;" edge="1" parent="1" source="jNEB7KIaW5zlR8YYvrXK-11" target="jNEB7KIaW5zlR8YYvrXK-15">
          <mxGeometry relative="1" as="geometry" />
        </mxCell>
        <mxCell id="jNEB7KIaW5zlR8YYvrXK-14" style="edgeStyle=orthogonalEdgeStyle;rounded=0;orthogonalLoop=1;jettySize=auto;html=1;endArrow=oval;endFill=1;" edge="1" parent="1" source="jNEB7KIaW5zlR8YYvrXK-11" target="jNEB7KIaW5zlR8YYvrXK-13">
          <mxGeometry relative="1" as="geometry" />
        </mxCell>
        <mxCell id="jNEB7KIaW5zlR8YYvrXK-11" value="Prompt:&lt;div&gt;Text fields&lt;/div&gt;" style="shape=hexagon;perimeter=hexagonPerimeter2;whiteSpace=wrap;html=1;fixedSize=1;" vertex="1" parent="1">
          <mxGeometry x="100" y="140" width="80" height="50" as="geometry" />
        </mxCell>
        <mxCell id="jNEB7KIaW5zlR8YYvrXK-13" value="$USERNAME&lt;div&gt;$PASSWORD&lt;/div&gt;" style="shape=internalStorage;whiteSpace=wrap;html=1;backgroundOutline=1;" vertex="1" parent="1">
          <mxGeometry x="230" y="127.5" width="160" height="75" as="geometry" />
        </mxCell>
        <mxCell id="jNEB7KIaW5zlR8YYvrXK-16" value="" style="edgeStyle=orthogonalEdgeStyle;rounded=0;orthogonalLoop=1;jettySize=auto;html=1;exitX=0.5;exitY=1;exitDx=0;exitDy=0;entryX=0.5;entryY=0;entryDx=0;entryDy=0;" edge="1" parent="1" source="jNEB7KIaW5zlR8YYvrXK-15" target="jNEB7KIaW5zlR8YYvrXK-21">
          <mxGeometry relative="1" as="geometry">
            <mxPoint x="140" y="320" as="targetPoint" />
          </mxGeometry>
        </mxCell>
        <mxCell id="jNEB7KIaW5zlR8YYvrXK-15" value="Error:&lt;div&gt;No USR/PW&lt;/div&gt;" style="shape=parallelogram;perimeter=parallelogramPerimeter;whiteSpace=wrap;html=1;fixedSize=1;" vertex="1" parent="1">
          <mxGeometry x="80" y="230" width="120" height="40" as="geometry" />
        </mxCell>
        <mxCell id="jNEB7KIaW5zlR8YYvrXK-38" style="edgeStyle=orthogonalEdgeStyle;rounded=0;orthogonalLoop=1;jettySize=auto;html=1;entryX=0;entryY=0.5;entryDx=0;entryDy=0;" edge="1" parent="1" source="jNEB7KIaW5zlR8YYvrXK-18" target="jNEB7KIaW5zlR8YYvrXK-10">
          <mxGeometry relative="1" as="geometry" />
        </mxCell>
        <mxCell id="jNEB7KIaW5zlR8YYvrXK-18" value="Prompt:&lt;div&gt;Folder selection&amp;nbsp;&lt;/div&gt;" style="shape=hexagon;perimeter=hexagonPerimeter2;whiteSpace=wrap;html=1;fixedSize=1;" vertex="1" parent="1">
          <mxGeometry x="280" y="550" width="130" height="50" as="geometry" />
        </mxCell>
        <mxCell id="jNEB7KIaW5zlR8YYvrXK-23" style="edgeStyle=orthogonalEdgeStyle;rounded=0;orthogonalLoop=1;jettySize=auto;html=1;entryX=0.5;entryY=0;entryDx=0;entryDy=0;" edge="1" parent="1" source="jNEB7KIaW5zlR8YYvrXK-21" target="jNEB7KIaW5zlR8YYvrXK-22">
          <mxGeometry relative="1" as="geometry" />
        </mxCell>
        <mxCell id="jNEB7KIaW5zlR8YYvrXK-21" value="GitHub SSH logic" style="shape=process;whiteSpace=wrap;html=1;backgroundOutline=1;" vertex="1" parent="1">
          <mxGeometry x="72.5" y="310" width="135" height="40" as="geometry" />
        </mxCell>
        <mxCell id="jNEB7KIaW5zlR8YYvrXK-24" style="edgeStyle=orthogonalEdgeStyle;rounded=0;orthogonalLoop=1;jettySize=auto;html=1;exitX=0.5;exitY=1;exitDx=0;exitDy=0;entryX=0.5;entryY=0;entryDx=0;entryDy=0;" edge="1" parent="1" source="jNEB7KIaW5zlR8YYvrXK-25" target="jNEB7KIaW5zlR8YYvrXK-9">
          <mxGeometry relative="1" as="geometry">
            <mxPoint x="160" y="560" as="sourcePoint" />
          </mxGeometry>
        </mxCell>
        <mxCell id="jNEB7KIaW5zlR8YYvrXK-26" style="edgeStyle=orthogonalEdgeStyle;rounded=0;orthogonalLoop=1;jettySize=auto;html=1;entryX=0.5;entryY=0;entryDx=0;entryDy=0;" edge="1" parent="1" source="jNEB7KIaW5zlR8YYvrXK-22" target="jNEB7KIaW5zlR8YYvrXK-25">
          <mxGeometry relative="1" as="geometry" />
        </mxCell>
        <mxCell id="jNEB7KIaW5zlR8YYvrXK-22" value="Error:&lt;div&gt;SSH not working&lt;/div&gt;&lt;div&gt;Key could not be generated&lt;/div&gt;" style="shape=parallelogram;perimeter=parallelogramPerimeter;whiteSpace=wrap;html=1;fixedSize=1;" vertex="1" parent="1">
          <mxGeometry x="30" y="385" width="220" height="55" as="geometry" />
        </mxCell>
        <mxCell id="jNEB7KIaW5zlR8YYvrXK-25" value="Prompt:&lt;div&gt;GitHub SSH Key&lt;/div&gt;" style="shape=hexagon;perimeter=hexagonPerimeter2;whiteSpace=wrap;html=1;fixedSize=1;" vertex="1" parent="1">
          <mxGeometry x="80" y="470" width="120" height="50" as="geometry" />
        </mxCell>
        <mxCell id="jNEB7KIaW5zlR8YYvrXK-40" style="edgeStyle=orthogonalEdgeStyle;rounded=0;orthogonalLoop=1;jettySize=auto;html=1;exitX=1;exitY=0.5;exitDx=0;exitDy=0;" edge="1" parent="1" source="jNEB7KIaW5zlR8YYvrXK-27" target="jNEB7KIaW5zlR8YYvrXK-39">
          <mxGeometry relative="1" as="geometry" />
        </mxCell>
        <mxCell id="jNEB7KIaW5zlR8YYvrXK-27" value="Prompt:&lt;div&gt;Repo selection&lt;/div&gt;" style="shape=hexagon;perimeter=hexagonPerimeter2;whiteSpace=wrap;html=1;fixedSize=1;" vertex="1" parent="1">
          <mxGeometry x="480" y="742.5" width="130" height="50" as="geometry" />
        </mxCell>
        <mxCell id="jNEB7KIaW5zlR8YYvrXK-31" style="edgeStyle=orthogonalEdgeStyle;rounded=0;orthogonalLoop=1;jettySize=auto;html=1;entryX=0.5;entryY=0;entryDx=0;entryDy=0;" edge="1" parent="1" source="jNEB7KIaW5zlR8YYvrXK-29" target="jNEB7KIaW5zlR8YYvrXK-30">
          <mxGeometry relative="1" as="geometry" />
        </mxCell>
        <mxCell id="jNEB7KIaW5zlR8YYvrXK-29" value="Establish SSH connection" style="shape=process;whiteSpace=wrap;html=1;backgroundOutline=1;" vertex="1" parent="1">
          <mxGeometry x="72.5" y="660" width="135" height="50" as="geometry" />
        </mxCell>
        <mxCell id="jNEB7KIaW5zlR8YYvrXK-32" style="edgeStyle=orthogonalEdgeStyle;rounded=0;orthogonalLoop=1;jettySize=auto;html=1;exitX=1;exitY=0.5;exitDx=0;exitDy=0;entryX=0;entryY=0.5;entryDx=0;entryDy=0;" edge="1" parent="1" source="jNEB7KIaW5zlR8YYvrXK-30" target="jNEB7KIaW5zlR8YYvrXK-8">
          <mxGeometry relative="1" as="geometry" />
        </mxCell>
        <mxCell id="jNEB7KIaW5zlR8YYvrXK-30" value="Error:&lt;div&gt;SSH not working&lt;/div&gt;&lt;div&gt;Remote not found&lt;/div&gt;" style="shape=parallelogram;perimeter=parallelogramPerimeter;whiteSpace=wrap;html=1;fixedSize=1;" vertex="1" parent="1">
          <mxGeometry x="60" y="740" width="160" height="55" as="geometry" />
        </mxCell>
        <mxCell id="jNEB7KIaW5zlR8YYvrXK-33" style="edgeStyle=orthogonalEdgeStyle;rounded=0;orthogonalLoop=1;jettySize=auto;html=1;endArrow=oval;endFill=1;exitX=0.5;exitY=0;exitDx=0;exitDy=0;entryX=0.5;entryY=1;entryDx=0;entryDy=0;" edge="1" target="jNEB7KIaW5zlR8YYvrXK-34" parent="1" source="jNEB7KIaW5zlR8YYvrXK-18">
          <mxGeometry relative="1" as="geometry">
            <mxPoint x="285" y="570" as="sourcePoint" />
          </mxGeometry>
        </mxCell>
        <mxCell id="jNEB7KIaW5zlR8YYvrXK-34" value="$MODEL" style="shape=internalStorage;whiteSpace=wrap;html=1;backgroundOutline=1;" vertex="1" parent="1">
          <mxGeometry x="292.5" y="440" width="105" height="70" as="geometry" />
        </mxCell>
        <mxCell id="jNEB7KIaW5zlR8YYvrXK-49" style="edgeStyle=orthogonalEdgeStyle;rounded=0;orthogonalLoop=1;jettySize=auto;html=1;entryX=0;entryY=0.5;entryDx=0;entryDy=0;" edge="1" parent="1" source="jNEB7KIaW5zlR8YYvrXK-39" target="jNEB7KIaW5zlR8YYvrXK-47">
          <mxGeometry relative="1" as="geometry" />
        </mxCell>
        <mxCell id="jNEB7KIaW5zlR8YYvrXK-39" value="Docker context logic" style="shape=process;whiteSpace=wrap;html=1;backgroundOutline=1;" vertex="1" parent="1">
          <mxGeometry x="640" y="737.5" width="120" height="60" as="geometry" />
        </mxCell>
        <mxCell id="jNEB7KIaW5zlR8YYvrXK-41" style="edgeStyle=orthogonalEdgeStyle;rounded=0;orthogonalLoop=1;jettySize=auto;html=1;endArrow=oval;endFill=1;exitX=0.5;exitY=0;exitDx=0;exitDy=0;entryX=0.5;entryY=1;entryDx=0;entryDy=0;" edge="1" target="jNEB7KIaW5zlR8YYvrXK-42" parent="1" source="jNEB7KIaW5zlR8YYvrXK-27">
          <mxGeometry relative="1" as="geometry">
            <mxPoint x="545" y="742.5" as="sourcePoint" />
          </mxGeometry>
        </mxCell>
        <mxCell id="jNEB7KIaW5zlR8YYvrXK-42" value="$MODEL" style="shape=internalStorage;whiteSpace=wrap;html=1;backgroundOutline=1;" vertex="1" parent="1">
          <mxGeometry x="492.5" y="632.5" width="105" height="70" as="geometry" />
        </mxCell>
        <mxCell id="jNEB7KIaW5zlR8YYvrXK-51" style="edgeStyle=orthogonalEdgeStyle;rounded=0;orthogonalLoop=1;jettySize=auto;html=1;exitX=1;exitY=0.5;exitDx=0;exitDy=0;entryX=0;entryY=0.5;entryDx=0;entryDy=0;" edge="1" parent="1" source="jNEB7KIaW5zlR8YYvrXK-43" target="jNEB7KIaW5zlR8YYvrXK-50">
          <mxGeometry relative="1" as="geometry" />
        </mxCell>
        <mxCell id="jNEB7KIaW5zlR8YYvrXK-43" value="Logic for mounting local folders + copy GitHub SSH key" style="shape=process;whiteSpace=wrap;html=1;backgroundOutline=1;" vertex="1" parent="1">
          <mxGeometry x="640" y="537.5" width="120" height="75" as="geometry" />
        </mxCell>
        <mxCell id="jNEB7KIaW5zlR8YYvrXK-52" style="edgeStyle=orthogonalEdgeStyle;rounded=0;orthogonalLoop=1;jettySize=auto;html=1;exitX=0.5;exitY=0;exitDx=0;exitDy=0;entryX=0.5;entryY=1;entryDx=0;entryDy=0;" edge="1" parent="1" source="jNEB7KIaW5zlR8YYvrXK-47" target="jNEB7KIaW5zlR8YYvrXK-50">
          <mxGeometry relative="1" as="geometry" />
        </mxCell>
        <mxCell id="jNEB7KIaW5zlR8YYvrXK-47" value="Logic for mounting remote folders + copy GitHub SSH key" style="shape=process;whiteSpace=wrap;html=1;backgroundOutline=1;" vertex="1" parent="1">
          <mxGeometry x="800" y="730" width="120" height="75" as="geometry" />
        </mxCell>
        <mxCell id="jNEB7KIaW5zlR8YYvrXK-53" value="Start" style="edgeStyle=orthogonalEdgeStyle;rounded=0;orthogonalLoop=1;jettySize=auto;html=1;exitX=0.5;exitY=0;exitDx=0;exitDy=0;entryX=0.5;entryY=1;entryDx=0;entryDy=0;fontStyle=1" edge="1" parent="1" source="jNEB7KIaW5zlR8YYvrXK-50" target="jNEB7KIaW5zlR8YYvrXK-55">
          <mxGeometry relative="1" as="geometry">
            <mxPoint x="890" y="480" as="targetPoint" />
            <mxPoint x="859.62" y="550" as="sourcePoint" />
          </mxGeometry>
        </mxCell>
        <mxCell id="jNEB7KIaW5zlR8YYvrXK-60" value="Stop" style="edgeStyle=orthogonalEdgeStyle;rounded=0;orthogonalLoop=1;jettySize=auto;html=1;exitX=1;exitY=0.5;exitDx=0;exitDy=0;entryX=1;entryY=0.5;entryDx=0;entryDy=0;fontStyle=1" edge="1" parent="1" source="jNEB7KIaW5zlR8YYvrXK-50" target="jNEB7KIaW5zlR8YYvrXK-59">
          <mxGeometry relative="1" as="geometry">
            <Array as="points">
              <mxPoint x="970" y="575" />
              <mxPoint x="970" y="313" />
            </Array>
          </mxGeometry>
        </mxCell>
        <mxCell id="jNEB7KIaW5zlR8YYvrXK-50" value="Prompt:&lt;div&gt;Buttons&lt;/div&gt;" style="shape=hexagon;perimeter=hexagonPerimeter2;whiteSpace=wrap;html=1;fixedSize=1;" vertex="1" parent="1">
          <mxGeometry x="795" y="550" width="130" height="50" as="geometry" />
        </mxCell>
        <mxCell id="jNEB7KIaW5zlR8YYvrXK-55" value="Docker container logic for start" style="shape=process;whiteSpace=wrap;html=1;backgroundOutline=1;" vertex="1" parent="1">
          <mxGeometry x="800" y="400" width="120" height="75" as="geometry" />
        </mxCell>
        <mxCell id="jNEB7KIaW5zlR8YYvrXK-58" style="edgeStyle=orthogonalEdgeStyle;rounded=0;orthogonalLoop=1;jettySize=auto;html=1;entryX=0;entryY=0.5;entryDx=0;entryDy=0;endArrow=oval;endFill=1;" edge="1" parent="1" source="jNEB7KIaW5zlR8YYvrXK-57" target="jNEB7KIaW5zlR8YYvrXK-55">
          <mxGeometry relative="1" as="geometry" />
        </mxCell>
        <mxCell id="jNEB7KIaW5zlR8YYvrXK-57" value="$USERNAME&lt;div&gt;$MODEL&lt;/div&gt;" style="shape=internalStorage;whiteSpace=wrap;html=1;backgroundOutline=1;" vertex="1" parent="1">
          <mxGeometry x="620" y="400" width="140" height="75" as="geometry" />
        </mxCell>
        <mxCell id="jNEB7KIaW5zlR8YYvrXK-62" style="edgeStyle=orthogonalEdgeStyle;rounded=0;orthogonalLoop=1;jettySize=auto;html=1;exitX=0.5;exitY=0;exitDx=0;exitDy=0;entryX=0.5;entryY=1;entryDx=0;entryDy=0;" edge="1" parent="1" source="jNEB7KIaW5zlR8YYvrXK-59" target="jNEB7KIaW5zlR8YYvrXK-61">
          <mxGeometry relative="1" as="geometry" />
        </mxCell>
        <mxCell id="jNEB7KIaW5zlR8YYvrXK-59" value="Docker container logic for stop" style="shape=process;whiteSpace=wrap;html=1;backgroundOutline=1;" vertex="1" parent="1">
          <mxGeometry x="800" y="275" width="120" height="75" as="geometry" />
        </mxCell>
        <mxCell id="jNEB7KIaW5zlR8YYvrXK-66" style="edgeStyle=orthogonalEdgeStyle;rounded=0;orthogonalLoop=1;jettySize=auto;html=1;exitX=0.5;exitY=0;exitDx=0;exitDy=0;entryX=0.5;entryY=1;entryDx=0;entryDy=0;" edge="1" parent="1" source="jNEB7KIaW5zlR8YYvrXK-61" target="jNEB7KIaW5zlR8YYvrXK-64">
          <mxGeometry relative="1" as="geometry" />
        </mxCell>
        <mxCell id="jNEB7KIaW5zlR8YYvrXK-61" value="GitHub push logic" style="shape=process;whiteSpace=wrap;html=1;backgroundOutline=1;" vertex="1" parent="1">
          <mxGeometry x="800" y="160" width="120" height="60" as="geometry" />
        </mxCell>
        <mxCell id="jNEB7KIaW5zlR8YYvrXK-64" value="EXIT" style="rounded=0;whiteSpace=wrap;html=1;" vertex="1" parent="1">
          <mxGeometry x="800" y="50" width="120" height="50" as="geometry" />
        </mxCell>
      </root>
    </mxGraphModel>
  </diagram>
</mxfile>
